<?xml version="1.0" encoding="UTF-8" standalone="no"?><svg xmlns="http://www.w3.org/2000/svg" xmlns:xlink="http://www.w3.org/1999/xlink" contentScriptType="application/ecmascript" contentStyleType="text/css" height="533px" preserveAspectRatio="none" style="width:2183px;height:533px;background:#FFFFFF;" version="1.1" viewBox="0 0 2183 533" width="2183px" zoomAndPan="magnify"><defs><filter height="300%" id="fajj3jfc2sksm" width="300%" x="-1" y="-1"><feGaussianBlur result="blurOut" stdDeviation="2.0"/><feColorMatrix in="blurOut" result="blurOut2" type="matrix" values="0 0 0 0 0 0 0 0 0 0 0 0 0 0 0 0 0 0 .4 0"/><feOffset dx="4.0" dy="4.0" in="blurOut2" result="blurOut3"/><feBlend in="SourceGraphic" in2="blurOut3" mode="normal"/></filter></defs><g><!--MD5=[124f0a8a3d7c111c6eefa25a0e20e542]
cluster boring_stuff--><polygon fill="#FFFFFF" filter="url(#fajj3jfc2sksm)" points="254.5,6,355.5,6,362.5,28.2969,2166.5,28.2969,2166.5,526,254.5,526,254.5,6" style="stroke:#000000;stroke-width:1.5;"/><line style="stroke:#000000;stroke-width:1.5;" x1="254.5" x2="362.5" y1="28.2969" y2="28.2969"/><text fill="#000000" font-family="sans-serif" font-size="14" font-weight="bold" lengthAdjust="spacing" textLength="95" x="258.5" y="20.9951">boring_stuff</text><!--MD5=[a69f79704e665aa85aad4eb5c8d1f346]
cluster boring_stuff.class_helper--><polygon fill="#FFFFFF" filter="url(#fajj3jfc2sksm)" points="1827.5,132,2031.5,132,2038.5,154.2969,2142.5,154.2969,2142.5,502,1827.5,502,1827.5,132" style="stroke:#000000;stroke-width:1.5;"/><line style="stroke:#000000;stroke-width:1.5;" x1="1827.5" x2="2038.5" y1="154.2969" y2="154.2969"/><text fill="#000000" font-family="sans-serif" font-size="14" font-weight="bold" lengthAdjust="spacing" textLength="198" x="1831.5" y="146.9951">boring_stuff.class_helper</text><!--MD5=[da961a1a4dc977293f3a8cd262265bf2]
cluster boring_stuff.class_helper.setter--><polygon fill="#FFFFFF" filter="url(#fajj3jfc2sksm)" points="1851.5,175,2108.5,175,2115.5,197.2969,2118.5,197.2969,2118.5,478,1851.5,478,1851.5,175" style="stroke:#000000;stroke-width:1.5;"/><line style="stroke:#000000;stroke-width:1.5;" x1="1851.5" x2="2115.5" y1="197.2969" y2="197.2969"/><text fill="#000000" font-family="sans-serif" font-size="14" font-weight="bold" lengthAdjust="spacing" textLength="251" x="1855.5" y="189.9951">boring_stuff.class_helper.setter</text><!--MD5=[9939708a8ff1356cb9cb9e272968b730]
cluster boring_stuff.parser--><polygon fill="#FFFFFF" filter="url(#fajj3jfc2sksm)" points="1468.5,87,1626.5,87,1633.5,109.2969,1803.5,109.2969,1803.5,343,1468.5,343,1468.5,87" style="stroke:#000000;stroke-width:1.5;"/><line style="stroke:#000000;stroke-width:1.5;" x1="1468.5" x2="1633.5" y1="109.2969" y2="109.2969"/><text fill="#000000" font-family="sans-serif" font-size="14" font-weight="bold" lengthAdjust="spacing" textLength="152" x="1472.5" y="101.9951">boring_stuff.parser</text><!--MD5=[40817b9e7af3b62c9f3b65601db2750e]
cluster boring_stuff.parser.parser_python--><polygon fill="#FFFFFF" filter="url(#fajj3jfc2sksm)" points="1492.5,130,1769.5,130,1776.5,152.2969,1779.5,152.2969,1779.5,319,1492.5,319,1492.5,130" style="stroke:#000000;stroke-width:1.5;"/><line style="stroke:#000000;stroke-width:1.5;" x1="1492.5" x2="1776.5" y1="152.2969" y2="152.2969"/><text fill="#000000" font-family="sans-serif" font-size="14" font-weight="bold" lengthAdjust="spacing" textLength="271" x="1496.5" y="144.9951">boring_stuff.parser.parser_python</text><!--MD5=[b09f66057b54bc38a2ee6d0110f5e3ba]
cluster boring_stuff.projects--><polygon fill="#FFFFFF" filter="url(#fajj3jfc2sksm)" points="736.5,68,907.5,68,914.5,90.2969,1444.5,90.2969,1444.5,362,736.5,362,736.5,68" style="stroke:#000000;stroke-width:1.5;"/><line style="stroke:#000000;stroke-width:1.5;" x1="736.5" x2="914.5" y1="90.2969" y2="90.2969"/><text fill="#000000" font-family="sans-serif" font-size="14" font-weight="bold" lengthAdjust="spacing" textLength="165" x="740.5" y="82.9951">boring_stuff.projects</text><!--MD5=[487a58cb61486937154313076102e419]
cluster boring_stuff.projects.map--><polygon fill="#FFFFFF" filter="url(#fajj3jfc2sksm)" points="1152.5,162,1361.5,162,1368.5,184.2969,1420.5,184.2969,1420.5,287,1152.5,287,1152.5,162" style="stroke:#000000;stroke-width:1.5;"/><line style="stroke:#000000;stroke-width:1.5;" x1="1152.5" x2="1368.5" y1="184.2969" y2="184.2969"/><text fill="#000000" font-family="sans-serif" font-size="14" font-weight="bold" lengthAdjust="spacing" textLength="203" x="1156.5" y="176.9951">boring_stuff.projects.map</text><!--MD5=[a15acd3a8c4a539ee69911ff6ed26e76]
cluster boring_stuff.projects.map_with_inspect--><polygon fill="#FFFFFF" filter="url(#fajj3jfc2sksm)" points="760.5,111,1075.5,111,1082.5,133.2969,1128.5,133.2969,1128.5,338,760.5,338,760.5,111" style="stroke:#000000;stroke-width:1.5;"/><line style="stroke:#000000;stroke-width:1.5;" x1="760.5" x2="1082.5" y1="133.2969" y2="133.2969"/><text fill="#000000" font-family="sans-serif" font-size="14" font-weight="bold" lengthAdjust="spacing" textLength="309" x="764.5" y="125.9951">boring_stuff.projects.map_with_inspect</text><!--MD5=[bab8c9110ec2f52ae5065a1de2bcc89b]
cluster boring_stuff.uml--><polygon fill="#FFFFFF" filter="url(#fajj3jfc2sksm)" points="278.5,49,412.5,49,419.5,71.2969,712.5,71.2969,712.5,381,278.5,381,278.5,49" style="stroke:#000000;stroke-width:1.5;"/><line style="stroke:#000000;stroke-width:1.5;" x1="278.5" x2="419.5" y1="71.2969" y2="71.2969"/><text fill="#000000" font-family="sans-serif" font-size="14" font-weight="bold" lengthAdjust="spacing" textLength="128" x="282.5" y="63.9951">boring_stuff.uml</text><!--MD5=[7057b8e6d947d55005674e9287024b7b]
cluster boring_stuff.uml.class_diagram--><polygon fill="#FFFFFF" filter="url(#fajj3jfc2sksm)" points="302.5,92,551.5,92,558.5,114.2969,688.5,114.2969,688.5,357,302.5,357,302.5,92" style="stroke:#000000;stroke-width:1.5;"/><line style="stroke:#000000;stroke-width:1.5;" x1="302.5" x2="558.5" y1="114.2969" y2="114.2969"/><text fill="#000000" font-family="sans-serif" font-size="14" font-weight="bold" lengthAdjust="spacing" textLength="243" x="306.5" y="106.9951">boring_stuff.uml.class_diagram</text><!--MD5=[7dfa6927ffdbbd7f39791e8d2f73b6ad]
class Setter--><rect codeLine="11" fill="#FEFECE" filter="url(#fajj3jfc2sksm)" height="60.8047" id="Setter" style="stroke:#A80036;stroke-width:1.5;" width="123" x="1923" y="401"/><ellipse cx="1961.4" cy="417" fill="#ADD1B2" rx="11" ry="11" style="stroke:#A80036;stroke-width:1.0;"/><path d="M1964.3688,422.6406 Q1963.7906,422.9375 1963.15,423.0781 Q1962.5094,423.2344 1961.8063,423.2344 Q1959.3063,423.2344 1957.9781,421.5938 Q1956.6656,419.9375 1956.6656,416.8125 Q1956.6656,413.6875 1957.9781,412.0313 Q1959.3063,410.375 1961.8063,410.375 Q1962.5094,410.375 1963.15,410.5313 Q1963.8063,410.6875 1964.3688,410.9844 L1964.3688,413.7031 Q1963.7438,413.125 1963.15,412.8594 Q1962.5563,412.5781 1961.9313,412.5781 Q1960.5875,412.5781 1959.9,413.6563 Q1959.2125,414.7188 1959.2125,416.8125 Q1959.2125,418.9063 1959.9,419.9844 Q1960.5875,421.0469 1961.9313,421.0469 Q1962.5563,421.0469 1963.15,420.7813 Q1963.7438,420.5 1964.3688,419.9219 L1964.3688,422.6406 Z " fill="#000000"/><text fill="#000000" font-family="sans-serif" font-size="12" lengthAdjust="spacing" textLength="39" x="1980.6" y="421.1543">Setter</text><line style="stroke:#A80036;stroke-width:1.5;" x1="1924" x2="2045" y1="433" y2="433"/><line style="stroke:#A80036;stroke-width:1.5;" x1="1924" x2="2045" y1="441" y2="441"/><rect fill="#F24D5C" height="6" style="stroke:#C82930;stroke-width:1.0;" width="6" x="1931" y="449"/><text fill="#000000" font-family="sans-serif" font-size="11" lengthAdjust="spacing" textLength="97" x="1943" y="455.2104">void __init__(self)</text><!--MD5=[f42b146e1926d521b9358e53f30c06eb]
class object--><rect fill="#FEFECE" filter="url(#fajj3jfc2sksm)" height="48" id="object" style="stroke:#A80036;stroke-width:1.5;" width="71" x="1949" y="210"/><ellipse cx="1964" cy="226" fill="#ADD1B2" rx="11" ry="11" style="stroke:#A80036;stroke-width:1.0;"/><path d="M1966.9688,231.6406 Q1966.3906,231.9375 1965.75,232.0781 Q1965.1094,232.2344 1964.4063,232.2344 Q1961.9063,232.2344 1960.5781,230.5938 Q1959.2656,228.9375 1959.2656,225.8125 Q1959.2656,222.6875 1960.5781,221.0313 Q1961.9063,219.375 1964.4063,219.375 Q1965.1094,219.375 1965.75,219.5313 Q1966.4063,219.6875 1966.9688,219.9844 L1966.9688,222.7031 Q1966.3438,222.125 1965.75,221.8594 Q1965.1563,221.5781 1964.5313,221.5781 Q1963.1875,221.5781 1962.5,222.6563 Q1961.8125,223.7188 1961.8125,225.8125 Q1961.8125,227.9063 1962.5,228.9844 Q1963.1875,230.0469 1964.5313,230.0469 Q1965.1563,230.0469 1965.75,229.7813 Q1966.3438,229.5 1966.9688,228.9219 L1966.9688,231.6406 Z " fill="#000000"/><text fill="#000000" font-family="sans-serif" font-size="12" lengthAdjust="spacing" textLength="39" x="1978" y="230.1543">object</text><line style="stroke:#A80036;stroke-width:1.5;" x1="1950" x2="2019" y1="242" y2="242"/><line style="stroke:#A80036;stroke-width:1.5;" x1="1950" x2="2019" y1="250" y2="250"/><!--MD5=[13d80a7e4f93fcc70fe0a73a19b87c6e]
class boring_stuff.parser.parser_python.module--><rect codeLine="21" fill="#FEFECE" filter="url(#fajj3jfc2sksm)" height="137.6328" id="boring_stuff.parser.parser_python.module" style="stroke:#A80036;stroke-width:1.5;" width="253" x="1509" y="165"/><ellipse cx="1608.25" cy="181" fill="#ADD1B2" rx="11" ry="11" style="stroke:#A80036;stroke-width:1.0;"/><path d="M1611.2188,186.6406 Q1610.6406,186.9375 1610,187.0781 Q1609.3594,187.2344 1608.6563,187.2344 Q1606.1563,187.2344 1604.8281,185.5938 Q1603.5156,183.9375 1603.5156,180.8125 Q1603.5156,177.6875 1604.8281,176.0313 Q1606.1563,174.375 1608.6563,174.375 Q1609.3594,174.375 1610,174.5313 Q1610.6563,174.6875 1611.2188,174.9844 L1611.2188,177.7031 Q1610.5938,177.125 1610,176.8594 Q1609.4063,176.5781 1608.7813,176.5781 Q1607.4375,176.5781 1606.75,177.6563 Q1606.0625,178.7188 1606.0625,180.8125 Q1606.0625,182.9063 1606.75,183.9844 Q1607.4375,185.0469 1608.7813,185.0469 Q1609.4063,185.0469 1610,184.7813 Q1610.5938,184.5 1611.2188,183.9219 L1611.2188,186.6406 Z " fill="#000000"/><text fill="#000000" font-family="sans-serif" font-size="12" lengthAdjust="spacing" textLength="46" x="1628.75" y="185.1543">module</text><line style="stroke:#A80036;stroke-width:1.5;" x1="1510" x2="1761" y1="197" y2="197"/><ellipse cx="1520" cy="208" rx="3" ry="3" style="stroke:#038048;stroke-width:1.0;fill:none;"/><text fill="#000000" font-family="sans-serif" font-size="11" lengthAdjust="spacing" textLength="176" x="1529" y="211.2104">RE_CLASS:&lt;class 're.Pattern'&gt;</text><ellipse cx="1520" cy="220.8047" rx="3" ry="3" style="stroke:#038048;stroke-width:1.0;fill:none;"/><text fill="#000000" font-family="sans-serif" font-size="11" lengthAdjust="spacing" textLength="212" x="1529" y="224.0151">RE_CLASS_FUNC:&lt;class 're.Pattern'&gt;</text><ellipse cx="1520" cy="233.6094" rx="3" ry="3" style="stroke:#038048;stroke-width:1.0;fill:none;"/><text fill="#000000" font-family="sans-serif" font-size="11" lengthAdjust="spacing" textLength="169" x="1529" y="236.8198">RE_FUNC:&lt;class 're.Pattern'&gt;</text><ellipse cx="1520" cy="246.4141" rx="3" ry="3" style="stroke:#038048;stroke-width:1.0;fill:none;"/><text fill="#000000" font-family="sans-serif" font-size="11" lengthAdjust="spacing" textLength="184" x="1529" y="249.6245">RE_PARAMS:&lt;class 're.Pattern'&gt;</text><ellipse cx="1520" cy="259.2188" rx="3" ry="3" style="stroke:#038048;stroke-width:1.0;fill:none;"/><text fill="#000000" font-family="sans-serif" font-size="11" lengthAdjust="spacing" textLength="182" x="1529" y="262.4292">logger:&lt;class 'logging.Logger'&gt;</text><line style="stroke:#A80036;stroke-width:1.5;" x1="1510" x2="1761" y1="269.0234" y2="269.0234"/><ellipse cx="1520" cy="280.0234" fill="#84BE84" rx="3" ry="3" style="stroke:#038048;stroke-width:1.0;"/><text fill="#000000" font-family="sans-serif" font-size="11" lengthAdjust="spacing" textLength="214" x="1529" y="283.2339">void parse_file(filename, base_name)</text><ellipse cx="1520" cy="292.8281" fill="#84BE84" rx="3" ry="3" style="stroke:#038048;stroke-width:1.0;"/><text fill="#000000" font-family="sans-serif" font-size="11" lengthAdjust="spacing" textLength="227" x="1529" y="296.0386">void parse_functions(txt, class_method)</text><!--MD5=[52c502ff765ed8b86187276b730b5ee6]
class boring_stuff.projects.map.module--><rect codeLine="36" fill="#FEFECE" filter="url(#fajj3jfc2sksm)" height="73.6094" id="boring_stuff.projects.map.module" style="stroke:#A80036;stroke-width:1.5;" width="235" x="1169" y="197"/><ellipse cx="1259.25" cy="213" fill="#ADD1B2" rx="11" ry="11" style="stroke:#A80036;stroke-width:1.0;"/><path d="M1262.2188,218.6406 Q1261.6406,218.9375 1261,219.0781 Q1260.3594,219.2344 1259.6563,219.2344 Q1257.1563,219.2344 1255.8281,217.5938 Q1254.5156,215.9375 1254.5156,212.8125 Q1254.5156,209.6875 1255.8281,208.0313 Q1257.1563,206.375 1259.6563,206.375 Q1260.3594,206.375 1261,206.5313 Q1261.6563,206.6875 1262.2188,206.9844 L1262.2188,209.7031 Q1261.5938,209.125 1261,208.8594 Q1260.4063,208.5781 1259.7813,208.5781 Q1258.4375,208.5781 1257.75,209.6563 Q1257.0625,210.7188 1257.0625,212.8125 Q1257.0625,214.9063 1257.75,215.9844 Q1258.4375,217.0469 1259.7813,217.0469 Q1260.4063,217.0469 1261,216.7813 Q1261.5938,216.5 1262.2188,215.9219 L1262.2188,218.6406 Z " fill="#000000"/><text fill="#000000" font-family="sans-serif" font-size="12" lengthAdjust="spacing" textLength="46" x="1279.75" y="217.1543">module</text><line style="stroke:#A80036;stroke-width:1.5;" x1="1170" x2="1403" y1="229" y2="229"/><ellipse cx="1180" cy="240" rx="3" ry="3" style="stroke:#038048;stroke-width:1.0;fill:none;"/><text fill="#000000" font-family="sans-serif" font-size="11" lengthAdjust="spacing" textLength="154" x="1189" y="243.2104">IGNORE_DIRS:&lt;class 'list'&gt;</text><line style="stroke:#A80036;stroke-width:1.5;" x1="1170" x2="1403" y1="249.8047" y2="249.8047"/><ellipse cx="1180" cy="260.8047" fill="#84BE84" rx="3" ry="3" style="stroke:#038048;stroke-width:1.0;"/><text fill="#000000" font-family="sans-serif" font-size="11" lengthAdjust="spacing" textLength="209" x="1189" y="264.0151">void map_python(in_dir, base_name)</text><!--MD5=[8b33ae0dba9d228ceaf2838c25706b26]
class boring_stuff.projects.map_with_inspect.module--><rect codeLine="44" fill="#FEFECE" filter="url(#fajj3jfc2sksm)" height="176.0469" id="boring_stuff.projects.map_with_inspect.module" style="stroke:#A80036;stroke-width:1.5;" width="335" x="777" y="146"/><ellipse cx="917.25" cy="162" fill="#ADD1B2" rx="11" ry="11" style="stroke:#A80036;stroke-width:1.0;"/><path d="M920.2188,167.6406 Q919.6406,167.9375 919,168.0781 Q918.3594,168.2344 917.6563,168.2344 Q915.1563,168.2344 913.8281,166.5938 Q912.5156,164.9375 912.5156,161.8125 Q912.5156,158.6875 913.8281,157.0313 Q915.1563,155.375 917.6563,155.375 Q918.3594,155.375 919,155.5313 Q919.6563,155.6875 920.2188,155.9844 L920.2188,158.7031 Q919.5938,158.125 919,157.8594 Q918.4063,157.5781 917.7813,157.5781 Q916.4375,157.5781 915.75,158.6563 Q915.0625,159.7188 915.0625,161.8125 Q915.0625,163.9063 915.75,164.9844 Q916.4375,166.0469 917.7813,166.0469 Q918.4063,166.0469 919,165.7813 Q919.5938,165.5 920.2188,164.9219 L920.2188,167.6406 Z " fill="#000000"/><text fill="#000000" font-family="sans-serif" font-size="12" lengthAdjust="spacing" textLength="46" x="937.75" y="166.1543">module</text><line style="stroke:#A80036;stroke-width:1.5;" x1="778" x2="1111" y1="178" y2="178"/><ellipse cx="788" cy="189" rx="3" ry="3" style="stroke:#038048;stroke-width:1.0;fill:none;"/><text fill="#000000" font-family="sans-serif" font-size="11" lengthAdjust="spacing" textLength="182" x="797" y="192.2104">logger:&lt;class 'logging.Logger'&gt;</text><line style="stroke:#A80036;stroke-width:1.5;" x1="778" x2="1111" y1="198.8047" y2="198.8047"/><ellipse cx="788" cy="209.8047" fill="#84BE84" rx="3" ry="3" style="stroke:#038048;stroke-width:1.0;"/><text fill="#000000" font-family="sans-serif" font-size="11" lengthAdjust="spacing" textLength="309" x="797" y="213.0151">void add_classes(c_package, class_dict, access_level)</text><ellipse cx="788" cy="222.6094" fill="#84BE84" rx="3" ry="3" style="stroke:#038048;stroke-width:1.0;"/><text fill="#000000" font-family="sans-serif" font-size="11" lengthAdjust="spacing" textLength="309" x="797" y="225.8198">void add_modules(c_package, mod_dict, access_level)</text><ellipse cx="788" cy="235.4141" fill="#84BE84" rx="3" ry="3" style="stroke:#038048;stroke-width:1.0;"/><text fill="#000000" font-family="sans-serif" font-size="11" lengthAdjust="spacing" textLength="131" x="797" y="238.6245">void get_access(name)</text><ellipse cx="788" cy="248.2188" fill="#84BE84" rx="3" ry="3" style="stroke:#038048;stroke-width:1.0;"/><text fill="#000000" font-family="sans-serif" font-size="11" lengthAdjust="spacing" textLength="112" x="797" y="251.4292">void get_parent(cls)</text><ellipse cx="788" cy="261.0234" fill="#84BE84" rx="3" ry="3" style="stroke:#038048;stroke-width:1.0;"/><text fill="#000000" font-family="sans-serif" font-size="11" lengthAdjust="spacing" textLength="192" x="797" y="264.2339">void map_class(cls, access_level)</text><ellipse cx="788" cy="273.8281" fill="#84BE84" rx="3" ry="3" style="stroke:#038048;stroke-width:1.0;"/><text fill="#000000" font-family="sans-serif" font-size="11" lengthAdjust="spacing" textLength="243" x="797" y="277.0386">void map_class_python2(cls, access_level)</text><ellipse cx="788" cy="286.6328" fill="#84BE84" rx="3" ry="3" style="stroke:#038048;stroke-width:1.0;"/><text fill="#000000" font-family="sans-serif" font-size="11" lengthAdjust="spacing" textLength="243" x="797" y="289.8433">void map_class_python3(cls, access_level)</text><ellipse cx="788" cy="299.4375" fill="#84BE84" rx="3" ry="3" style="stroke:#038048;stroke-width:1.0;"/><text fill="#000000" font-family="sans-serif" font-size="11" lengthAdjust="spacing" textLength="128" x="797" y="302.6479">void map_function(fnc)</text><ellipse cx="788" cy="312.2422" fill="#84BE84" rx="3" ry="3" style="stroke:#038048;stroke-width:1.0;"/><text fill="#000000" font-family="sans-serif" font-size="11" lengthAdjust="spacing" textLength="213" x="797" y="315.4526">void map_module(mod, access_level)</text><!--MD5=[e1a441590cb6bca2547445bdee46d197]
class boring_stuff.uml.class_diagram.module--><rect codeLine="62" fill="#FEFECE" filter="url(#fajj3jfc2sksm)" height="214.4609" id="boring_stuff.uml.class_diagram.module" style="stroke:#A80036;stroke-width:1.5;" width="353" x="319" y="127"/><ellipse cx="468.25" cy="143" fill="#ADD1B2" rx="11" ry="11" style="stroke:#A80036;stroke-width:1.0;"/><path d="M471.2188,148.6406 Q470.6406,148.9375 470,149.0781 Q469.3594,149.2344 468.6563,149.2344 Q466.1563,149.2344 464.8281,147.5938 Q463.5156,145.9375 463.5156,142.8125 Q463.5156,139.6875 464.8281,138.0313 Q466.1563,136.375 468.6563,136.375 Q469.3594,136.375 470,136.5313 Q470.6563,136.6875 471.2188,136.9844 L471.2188,139.7031 Q470.5938,139.125 470,138.8594 Q469.4063,138.5781 468.7813,138.5781 Q467.4375,138.5781 466.75,139.6563 Q466.0625,140.7188 466.0625,142.8125 Q466.0625,144.9063 466.75,145.9844 Q467.4375,147.0469 468.7813,147.0469 Q469.4063,147.0469 470,146.7813 Q470.5938,146.5 471.2188,145.9219 L471.2188,148.6406 Z " fill="#000000"/><text fill="#000000" font-family="sans-serif" font-size="12" lengthAdjust="spacing" textLength="46" x="488.75" y="147.1543">module</text><line style="stroke:#A80036;stroke-width:1.5;" x1="320" x2="671" y1="159" y2="159"/><ellipse cx="330" cy="170" rx="3" ry="3" style="stroke:#038048;stroke-width:1.0;fill:none;"/><text fill="#000000" font-family="sans-serif" font-size="11" lengthAdjust="spacing" textLength="128" x="339" y="173.2104">ACCESS:&lt;class 'dict'&gt;</text><ellipse cx="330" cy="182.8047" rx="3" ry="3" style="stroke:#038048;stroke-width:1.0;fill:none;"/><text fill="#000000" font-family="sans-serif" font-size="11" lengthAdjust="spacing" textLength="157" x="339" y="186.0151">CONNECTION:&lt;class 'dict'&gt;</text><ellipse cx="330" cy="195.6094" rx="3" ry="3" style="stroke:#038048;stroke-width:1.0;fill:none;"/><text fill="#000000" font-family="sans-serif" font-size="11" lengthAdjust="spacing" textLength="142" x="339" y="198.8198">MODIFIERS:&lt;class 'dict'&gt;</text><ellipse cx="330" cy="208.4141" rx="3" ry="3" style="stroke:#038048;stroke-width:1.0;fill:none;"/><text fill="#000000" font-family="sans-serif" font-size="11" lengthAdjust="spacing" textLength="100" x="339" y="211.6245">TAB:&lt;class 'str'&gt;</text><ellipse cx="330" cy="221.2188" rx="3" ry="3" style="stroke:#038048;stroke-width:1.0;fill:none;"/><text fill="#000000" font-family="sans-serif" font-size="11" lengthAdjust="spacing" textLength="182" x="339" y="224.4292">logger:&lt;class 'logging.Logger'&gt;</text><line style="stroke:#A80036;stroke-width:1.5;" x1="320" x2="671" y1="231.0234" y2="231.0234"/><ellipse cx="330" cy="242.0234" fill="#84BE84" rx="3" ry="3" style="stroke:#038048;stroke-width:1.0;"/><text fill="#000000" font-family="sans-serif" font-size="11" lengthAdjust="spacing" textLength="148" x="339" y="245.2339">void creator_note(out_file)</text><ellipse cx="330" cy="254.8281" fill="#84BE84" rx="3" ry="3" style="stroke:#038048;stroke-width:1.0;"/><text fill="#000000" font-family="sans-serif" font-size="11" lengthAdjust="spacing" textLength="250" x="339" y="258.0386">void write_class(class_spec, file_out, n_tab)</text><ellipse cx="330" cy="267.6328" fill="#84BE84" rx="3" ry="3" style="stroke:#038048;stroke-width:1.0;"/><text fill="#000000" font-family="sans-serif" font-size="11" lengthAdjust="spacing" textLength="327" x="339" y="270.8433">void write_class_diagram(package, output, draw_depend)</text><ellipse cx="330" cy="280.4375" fill="#84BE84" rx="3" ry="3" style="stroke:#038048;stroke-width:1.0;"/><text fill="#000000" font-family="sans-serif" font-size="11" lengthAdjust="spacing" textLength="301" x="339" y="283.6479">void write_dependencies(depend_list, file_out, n_tab)</text><ellipse cx="330" cy="293.2422" fill="#84BE84" rx="3" ry="3" style="stroke:#038048;stroke-width:1.0;"/><text fill="#000000" font-family="sans-serif" font-size="11" lengthAdjust="spacing" textLength="278" x="339" y="296.4526">void write_function(method_spec, file_out, n_tab)</text><ellipse cx="330" cy="306.0469" fill="#84BE84" rx="3" ry="3" style="stroke:#038048;stroke-width:1.0;"/><text fill="#000000" font-family="sans-serif" font-size="11" lengthAdjust="spacing" textLength="289" x="339" y="309.2573">void write_module(module, file_out, n_tab, tracker)</text><ellipse cx="330" cy="318.8516" fill="#84BE84" rx="3" ry="3" style="stroke:#038048;stroke-width:1.0;"/><text fill="#000000" font-family="sans-serif" font-size="11" lengthAdjust="spacing" textLength="299" x="339" y="322.062">void write_package(package, file_out, n_tab, tracker)</text><ellipse cx="330" cy="331.6563" fill="#84BE84" rx="3" ry="3" style="stroke:#038048;stroke-width:1.0;"/><text fill="#000000" font-family="sans-serif" font-size="11" lengthAdjust="spacing" textLength="253" x="339" y="334.8667">void write_variable(var_spec, file_out, n_tab)</text><path d="M6,214 L6,254.2656 L239,254.2656 L239,224 L229,214 L6,214 " fill="#FBFB77" filter="url(#fajj3jfc2sksm)" style="stroke:#A80036;stroke-width:1.0;"/><path d="M229,214 L229,224 L239,224 L229,214 " fill="#FBFB77" style="stroke:#A80036;stroke-width:1.0;"/><text fill="#000000" font-family="sans-serif" font-size="13" lengthAdjust="spacing" textLength="212" x="12" y="231.0669">Autogenerated by py-boring-stuff</text><text fill="#000000" font-family="sans-serif" font-size="13" lengthAdjust="spacing" textLength="166" x="12" y="246.1997">Thu Feb 10 21:46:09 2022</text><!--MD5=[7362213c13b1f13c2b3cba4e45097d4b]
reverse link object to Setter--><path codeLine="14" d="M1984.5,278.33 C1984.5,315.61 1984.5,368.38 1984.5,400.97 " fill="none" id="object-backto-Setter" style="stroke:#A80036;stroke-width:1.0;"/><polygon fill="none" points="1977.5,278.19,1984.5,258.19,1991.5,278.19,1977.5,278.19" style="stroke:#A80036;stroke-width:1.0;"/><!--MD5=[1b5bebf6be852b3081fb8abfbc013255]
@startuml
note as autonote
Autogenerated by py-boring-stuff
Thu Feb 10 21:46:09 2022
end note

package boring_stuff {
    package boring_stuff.class_helper {

        package boring_stuff.class_helper.setter {

            class Setter {
                - void __init__(self)
            }
            object <|-down- Setter
        }
    }
    package boring_stuff.parser {

        package boring_stuff.parser.parser_python {

            class boring_stuff.parser.parser_python.module {
                + RE_CLASS:<class 're.Pattern'>
                + RE_CLASS_FUNC:<class 're.Pattern'>
                + RE_FUNC:<class 're.Pattern'>
                + RE_PARAMS:<class 're.Pattern'>
                + logger:<class 'logging.Logger'>
                + void parse_file(filename, base_name)
                + void parse_functions(txt, class_method)
            }
        }
    }
    package boring_stuff.projects {

        package boring_stuff.projects.map {

            class boring_stuff.projects.map.module {
                + IGNORE_DIRS:<class 'list'>
                + void map_python(in_dir, base_name)
            }
        }

        package boring_stuff.projects.map_with_inspect {

            class boring_stuff.projects.map_with_inspect.module {
                + logger:<class 'logging.Logger'>
                + void add_classes(c_package, class_dict, access_level)
                + void add_modules(c_package, mod_dict, access_level)
                + void get_access(name)
                + void get_parent(cls)
                + void map_class(cls, access_level)
                + void map_class_python2(cls, access_level)
                + void map_class_python3(cls, access_level)
                + void map_function(fnc)
                + void map_module(mod, access_level)
            }
        }
    }
    package boring_stuff.uml {

        package boring_stuff.uml.class_diagram {

            class boring_stuff.uml.class_diagram.module {
                + ACCESS:<class 'dict'>
                + CONNECTION:<class 'dict'>
                + MODIFIERS:<class 'dict'>
                + TAB:<class 'str'>
                + logger:<class 'logging.Logger'>
                + void creator_note(out_file)
                + void write_class(class_spec, file_out, n_tab)
                + void write_class_diagram(package, output, draw_depend)
                + void write_dependencies(depend_list, file_out, n_tab)
                + void write_function(method_spec, file_out, n_tab)
                + void write_module(module, file_out, n_tab, tracker)
                + void write_package(package, file_out, n_tab, tracker)
                + void write_variable(var_spec, file_out, n_tab)
            }
        }
    }
}
@enduml

PlantUML version 1.2022.0(Tue Jan 11 11:16:42 EST 2022)
(GPL source distribution)
Java Runtime: OpenJDK Runtime Environment
JVM: OpenJDK 64-Bit Server VM
Default Encoding: UTF-8
Language: en
Country: US
--></g></svg>